# xmcd
#
# Track frame offsets:
# 150
# 19166
# 58966
# 79449
# 105447
# 121953
# 140456
# 158085
# 169871
# 192853
# 210224
#
# Disc length: 2938 seconds
#
# Revision: 0
# Processed by: cddbd v1.5.1PL2 Copyright (c) Steve Scherf et al.
# Submitted via: Audion 3.0.2 (http://www.panic.com/audion/)
#
DISCID=900b780b
DTITLE=Che Nazzerith - The Nazzerith Effect radio show
DYEAR=1900
DGENRE=
TTITLE0=d
TTITLE1=d
TTITLE2=d
TTITLE3=d
TTITLE4=d
TTITLE5=d
TTITLE6=d
TTITLE7=d
TTITLE8=d
TTITLE9=d
TTITLE10=d
EXTD=
EXTT0=
EXTT1=
EXTT2=
EXTT3=
EXTT4=
EXTT5=
EXTT6=
EXTT7=
EXTT8=
EXTT9=
EXTT10=
PLAYORDER=
